<svg width="96" height="51" viewBox="0 0 96 51" fill="none" xmlns="http://www.w3.org/2000/svg">
<path d="M0.288 45L8.256 26.64H8.448L16.416 45H12.384L7.296 32.088L9.816 30.36L3.72 45H0.288ZM5.736 38.616H11.04L12.264 41.544H4.656L5.736 38.616ZM18.5524 50.04L25.5364 34.512H28.5604L21.7924 50.04H18.5524ZM21.3604 45.048L16.2244 34.512H19.9924L23.9524 43.368L21.3604 45.048ZM35.3411 45.288C34.0611 45.288 32.9731 45.048 32.0771 44.568C31.1971 44.088 30.5251 43.424 30.0611 42.576C29.5971 41.728 29.3651 40.752 29.3651 39.648C29.3651 38.592 29.6371 37.64 30.1811 36.792C30.7251 35.944 31.4531 35.272 32.3651 34.776C33.2771 34.264 34.2931 34.008 35.4131 34.008C36.9171 34.008 38.1491 34.448 39.1091 35.328C40.0851 36.192 40.7171 37.448 41.0051 39.096L32.8451 41.688L32.1011 39.864L38.0051 37.872L37.3091 38.184C37.1811 37.768 36.9491 37.408 36.6131 37.104C36.2931 36.784 35.8051 36.624 35.1491 36.624C34.6531 36.624 34.2131 36.744 33.8291 36.984C33.4611 37.208 33.1731 37.536 32.9651 37.968C32.7731 38.384 32.6771 38.88 32.6771 39.456C32.6771 40.112 32.7971 40.664 33.0371 41.112C33.2771 41.544 33.6051 41.872 34.0211 42.096C34.4371 42.32 34.9011 42.432 35.4131 42.432C35.7811 42.432 36.1331 42.368 36.4691 42.24C36.8211 42.112 37.1651 41.944 37.5011 41.736L38.9891 44.232C38.4291 44.552 37.8211 44.808 37.1651 45C36.5251 45.192 35.9171 45.288 35.3411 45.288ZM48.6068 45.288C47.3268 45.288 46.2388 45.048 45.3428 44.568C44.4628 44.088 43.7908 43.424 43.3268 42.576C42.8628 41.728 42.6308 40.752 42.6308 39.648C42.6308 38.592 42.9028 37.64 43.4468 36.792C43.9908 35.944 44.7188 35.272 45.6308 34.776C46.5428 34.264 47.5588 34.008 48.6788 34.008C50.1828 34.008 51.4148 34.448 52.3748 35.328C53.3508 36.192 53.9827 37.448 54.2708 39.096L46.1108 41.688L45.3668 39.864L51.2708 37.872L50.5748 38.184C50.4468 37.768 50.2148 37.408 49.8788 37.104C49.5588 36.784 49.0708 36.624 48.4148 36.624C47.9188 36.624 47.4788 36.744 47.0948 36.984C46.7268 37.208 46.4388 37.536 46.2308 37.968C46.0388 38.384 45.9428 38.88 45.9428 39.456C45.9428 40.112 46.0628 40.664 46.3028 41.112C46.5428 41.544 46.8708 41.872 47.2868 42.096C47.7028 42.32 48.1668 42.432 48.6788 42.432C49.0468 42.432 49.3988 42.368 49.7348 42.24C50.0868 42.112 50.4308 41.944 50.7668 41.736L52.2548 44.232C51.6948 44.552 51.0868 44.808 50.4308 45C49.7908 45.192 49.1828 45.288 48.6068 45.288ZM59.7604 34.512L60.0244 36.384L59.9764 36.216C60.3444 35.56 60.8644 35.032 61.5364 34.632C62.2084 34.216 63.0324 34.008 64.0084 34.008C65.0004 34.008 65.8244 34.304 66.4804 34.896C67.1524 35.472 67.4964 36.224 67.5124 37.152V45H64.1524V38.4C64.1364 37.936 64.0084 37.568 63.7684 37.296C63.5444 37.008 63.1604 36.864 62.6164 36.864C62.1044 36.864 61.6564 37.032 61.2724 37.368C60.8884 37.704 60.5924 38.16 60.3844 38.736C60.1764 39.312 60.0724 39.976 60.0724 40.728V45H56.7124V34.512H59.7604ZM70.9624 45V26.064H74.2504V36.624L74.2264 36.216C74.5944 35.56 75.1144 35.032 75.7864 34.632C76.4584 34.216 77.2824 34.008 78.2584 34.008C79.2504 34.008 80.0744 34.304 80.7304 34.896C81.4024 35.472 81.7464 36.224 81.7624 37.152V45H78.4024V38.4C78.3864 37.936 78.2584 37.568 78.0184 37.296C77.7944 37.008 77.4104 36.864 76.8664 36.864C76.3544 36.864 75.9064 37.032 75.5224 37.368C75.1384 37.704 74.8424 38.16 74.6344 38.736C74.4264 39.312 74.3224 39.976 74.3224 40.728V45H70.9624Z" fill="#F5F5F5"/>
<path d="M26.152 26L27.712 22.64H32.44V26H26.152ZM29.704 26V21.2H30.76V26H29.704ZM27.4 17.24V14.888L30.76 13.52V15.776C30.632 16.032 30.384 16.272 30.016 16.496C29.648 16.72 29.232 16.904 28.768 17.048C28.304 17.176 27.848 17.24 27.4 17.24ZM27.4 14.168V7.544L30.76 6.8V12.8L27.4 14.168ZM30.76 21.92L26.704 17.84C26.912 17.84 27.208 17.832 27.592 17.816C27.976 17.784 28.376 17.728 28.792 17.648C29.224 17.552 29.616 17.416 29.968 17.24C30.336 17.048 30.6 16.8 30.76 16.496V21.92ZM26.704 26C25.968 26 25.288 25.816 24.664 25.448C24.04 25.08 23.536 24.584 23.152 23.96C22.784 23.336 22.6 22.656 22.6 21.92C22.6 21.168 22.784 20.488 23.152 19.88C23.536 19.256 24.04 18.76 24.664 18.392C25.288 18.024 25.968 17.84 26.704 17.84C27.456 17.84 28.136 18.024 28.744 18.392C29.352 18.76 29.84 19.256 30.208 19.88C30.576 20.488 30.76 21.168 30.76 21.92C30.76 22.672 30.576 23.36 30.208 23.984C29.84 24.592 29.352 25.08 28.744 25.448C28.136 25.816 27.456 26 26.704 26ZM26.704 22.64C26.912 22.64 27.08 22.576 27.208 22.448C27.336 22.304 27.4 22.128 27.4 21.92C27.4 21.712 27.336 21.544 27.208 21.416C27.08 21.272 26.912 21.2 26.704 21.2C26.496 21.2 26.32 21.272 26.176 21.416C26.032 21.544 25.96 21.712 25.96 21.92C25.96 22.128 26.032 22.304 26.176 22.448C26.32 22.576 26.496 22.64 26.704 22.64ZM33.9623 16.392C33.5783 16.392 33.2503 16.256 32.9783 15.984C32.7063 15.712 32.5703 15.384 32.5703 15C32.5703 14.616 32.7063 14.288 32.9783 14.016C33.2503 13.744 33.5783 13.608 33.9623 13.608C34.3463 13.608 34.6743 13.744 34.9463 14.016C35.2183 14.288 35.3543 14.616 35.3543 15C35.3543 15.384 35.2183 15.712 34.9463 15.984C34.6743 16.256 34.3463 16.392 33.9623 16.392ZM34.3609 26V22.64H39.6409V26H34.3609ZM31.4809 26V22.64H33.4009V18.584L36.7609 17.84V25.448C36.7609 25.64 36.6809 25.776 36.5209 25.856C36.3609 25.936 36.2009 25.984 36.0409 26C35.8809 26 35.8009 26 35.8009 26H31.4809ZM43.2237 31.392C42.8397 31.392 42.5117 31.256 42.2397 30.984C41.9677 30.712 41.8317 30.384 41.8317 30C41.8317 29.616 41.9677 29.288 42.2397 29.016C42.5117 28.744 42.8397 28.608 43.2237 28.608C43.6077 28.608 43.9357 28.744 44.2077 29.016C44.4797 29.288 44.6157 29.616 44.6157 30C44.6157 30.384 44.4797 30.712 44.2077 30.984C43.9357 31.256 43.6077 31.392 43.2237 31.392ZM39.0717 31.392C38.6877 31.392 38.3597 31.256 38.0877 30.984C37.8157 30.712 37.6797 30.384 37.6797 30C37.6797 29.616 37.8157 29.288 38.0877 29.016C38.3597 28.744 38.6877 28.608 39.0717 28.608C39.4557 28.608 39.7837 28.744 40.0557 29.016C40.3277 29.288 40.4637 29.616 40.4637 30C40.4637 30.384 40.3277 30.712 40.0557 30.984C39.7837 31.256 39.4557 31.392 39.0717 31.392ZM41.5563 26V22.64H46.8363V26H41.5563ZM38.6762 26V22.64H40.5963V18.584L43.9563 17.84V25.448C43.9563 25.64 43.8763 25.776 43.7163 25.856C43.5563 25.936 43.3963 25.984 43.2363 26C43.0763 26 42.9963 26 42.9963 26H38.6762ZM45.3916 26V22.64H47.7196C47.6556 22.432 47.5996 22.2 47.5516 21.944C47.5036 21.688 47.4956 21.424 47.5276 21.152C47.5596 20.88 47.6556 20.624 47.8156 20.384C48.0876 19.952 48.4796 19.592 48.9916 19.304C49.5036 19.016 50.1996 18.752 51.0796 18.512C51.9596 18.272 53.0796 18.024 54.4396 17.768L54.6076 17.984C53.4556 18.512 52.6236 18.976 52.1116 19.376C51.6156 19.76 51.2716 20.112 51.0796 20.432C50.9836 20.592 50.9436 20.784 50.9596 21.008C50.9916 21.232 51.0636 21.424 51.1756 21.584C51.4156 21.872 51.6556 22.12 51.8956 22.328C52.1516 22.536 52.4636 22.64 52.8316 22.64H58.5916L57.1756 26H45.3916Z" fill="#F5F5F5"/>
</svg>
